<?xml version="1.0" standalone="no"?>
<!DOCTYPE svg PUBLIC "-//W3C//DTD SVG 20010904//EN"
 "http://www.w3.org/TR/2001/REC-SVG-20010904/DTD/svg10.dtd">
<svg version="1.0" xmlns="http://www.w3.org/2000/svg"
 width="458.000000pt" height="475.000000pt" viewBox="0 0 458.000000 475.000000"
 preserveAspectRatio="xMidYMid meet">

<g transform="translate(0.000000,475.000000) scale(0.100000,-0.100000)"
fill="#000000" stroke="none">
<path d="M370 4729 c-117 -23 -251 -123 -304 -227 -59 -117 -56 -13 -56 -1878
0 -1100 4 -1731 10 -1765 24 -132 127 -260 257 -322 l68 -32 1109 -3 c1056 -2
1108 -2 1103 15 -3 10 -17 48 -31 85 -49 131 -69 257 -63 413 11 311 120 561
337 775 192 189 420 293 705 322 232 23 482 -40 703 -177 l42 -26 -2 1248 -3
1248 -32 68 c-60 126 -188 228 -321 256 -65 14 -3452 14 -3522 0z m3592 -107
c104 -51 181 -149 208 -264 16 -69 13 -2312 -2 -2305 -7 3 -50 22 -96 42 -105
46 -252 84 -362 93 l-85 7 3 110 c6 176 -22 374 -74 533 -122 367 -395 684
-740 859 -252 128 -449 170 -744 160 -239 -8 -380 -43 -595 -147 -155 -75
-276 -161 -400 -285 -210 -211 -348 -467 -412 -765 -26 -123 -26 -469 1 -590
64 -292 191 -531 393 -741 216 -223 477 -367 783 -430 107 -22 318 -30 474
-19 l70 5 12 -80 c10 -73 35 -181 50 -220 6 -14 -96 -15 -1027 -13 l-1034 3
-57 23 c-81 33 -160 108 -200 190 l-33 67 -3 1745 c-3 1939 -8 1790 65 1898
42 62 112 116 185 142 51 18 109 19 1803 17 l1750 -2 67 -33z m-1560 -862
c602 -123 1053 -601 1137 -1204 17 -117 14 -331 -3 -349 -8 -8 -45 -17 -88
-20 -106 -9 -253 -49 -357 -98 -50 -23 -93 -40 -96 -37 -3 2 -10 40 -16 84
-17 117 -15 371 5 488 16 98 58 239 77 263 13 15 2 37 -61 123 -222 301 -605
471 -973 431 -453 -49 -806 -342 -931 -774 -177 -609 211 -1244 832 -1363 97
-18 287 -18 397 1 48 9 90 14 92 11 3 -3 -2 -37 -12 -77 -9 -40 -19 -117 -22
-170 -5 -77 -9 -99 -22 -105 -9 -4 -88 -9 -176 -12 -180 -5 -296 9 -450 53
-501 145 -885 564 -997 1088 -28 137 -31 389 -4 522 79 398 292 719 621 937
193 128 410 205 660 232 82 9 288 -4 387 -24z m-27 -420 c108 -29 200 -69 293
-126 84 -52 229 -191 281 -266 31 -46 31 -49 16 -78 -8 -16 -17 -30 -19 -30
-1 0 -141 -20 -309 -45 -169 -25 -319 -45 -334 -45 -24 1 -57 38 -250 283
-121 155 -218 286 -213 290 4 4 47 17 96 28 119 26 322 21 439 -11z m-385
-351 c129 -164 240 -306 246 -314 9 -13 54 -8 345 35 184 26 335 47 337 45 2
-2 -4 -52 -14 -112 -11 -69 -17 -168 -18 -275 l-1 -167 -30 -5 c-16 -3 -140
-22 -275 -41 -134 -19 -247 -39 -251 -43 -4 -4 -73 -171 -153 -372 l-145 -365
-43 3 c-106 9 -289 78 -405 153 l-62 41 18 46 c11 26 78 195 150 375 l131 328
-241 307 c-133 169 -246 312 -251 318 -12 16 136 172 220 232 69 48 180 112
197 111 6 0 116 -135 245 -300z m-489 -391 c123 -155 222 -289 222 -297 -1 -9
-56 -153 -123 -321 -67 -168 -126 -316 -131 -329 -10 -24 -10 -24 -60 25 -58
57 -134 164 -177 249 -123 247 -134 560 -28 821 24 58 64 134 71 134 2 0 104
-127 226 -282z m1403 -495 c3 -10 8 -38 11 -63 l7 -45 -64 -47 c-80 -58 -201
-184 -259 -269 -24 -35 -67 -109 -95 -163 l-50 -100 -62 -17 c-55 -16 -208
-39 -254 -39 -10 0 -18 6 -18 13 0 12 257 667 264 674 4 4 456 71 488 72 17 1
28 -5 32 -16z"/>
<path d="M2083 4459 c-57 -11 -94 -31 -133 -75 -45 -52 -60 -93 -60 -164 0
-142 99 -243 240 -244 120 -2 215 73 241 189 39 175 -109 326 -288 294z m104
-80 c34 -13 80 -55 99 -91 38 -72 -1 -179 -79 -217 -101 -49 -205 -1 -238 109
-22 74 19 157 95 191 47 21 82 24 123 8z"/>
<path d="M418 4397 c-14 -12 -31 -32 -37 -44 -17 -34 -14 -238 4 -273 32 -63
2 -60 650 -60 655 0 622 -3 651 66 20 49 19 226 -2 270 -31 66 -12 64 -656 64
l-583 0 -27 -23z m1184 -64 c15 -13 18 -32 18 -114 0 -75 -4 -101 -16 -113
-14 -14 -79 -16 -565 -16 -360 0 -557 4 -570 10 -17 10 -19 22 -19 120 0 93 3
110 18 119 11 7 212 10 566 11 497 0 551 -2 568 -17z"/>
<path d="M3423 1956 c-409 -78 -714 -376 -797 -779 -21 -99 -21 -285 0 -384
61 -295 243 -539 507 -678 372 -196 822 -135 1128 153 288 271 386 669 258
1045 -61 178 -198 361 -355 473 -83 60 -230 127 -334 154 -109 28 -305 35
-407 16z m212 -202 c41 -16 45 -48 45 -374 l0 -310 319 0 318 0 27 -26 c28
-29 33 -62 14 -97 -24 -46 -27 -46 -360 -47 l-317 0 -3 -319 -3 -319 -24 -26
c-34 -36 -88 -36 -122 0 l-24 26 -3 319 -3 319 -315 0 -316 0 -29 29 c-36 36
-37 70 -3 110 l26 31 318 0 319 0 3 319 3 319 24 26 c24 26 68 34 106 20z"/>
</g>
</svg>
