<?xml version="1.0" encoding="UTF-8"?>
<svg id="Layer_2" data-name="Layer 2" xmlns="http://www.w3.org/2000/svg" viewBox="0 0 86.29 86.29">
  <defs>
    <style>
      .cls-1 {
        fill: none;
        stroke-width: 5px;
      }

      .cls-1, .cls-2 {
        stroke: #231f20;
        stroke-miterlimit: 10;
      }

      .cls-3 {
        fill: #808285;
      }

      .cls-3, .cls-4 {
        stroke-width: 0px;
      }

      .cls-4 {
        fill: #231f20;
      }

      .cls-2 {
        fill: #58595b;
        stroke-width: 3px;
      }
    </style>
  </defs>
  <g id="Layer_1-2" data-name="Layer 1">
    <path class="cls-2" d="M59.72,24.44H26.57c-3.57,0-6.46,2.89-6.46,6.46v45.74c6.55,4.51,14.48,7.16,23.03,7.16s16.48-2.65,23.03-7.16V30.89c0-3.57-2.89-6.46-6.46-6.46Z"/>
    <circle class="cls-1" cx="43.15" cy="43.15" r="40.65"/>
    <rect class="cls-4" x="34.97" y="27.08" width="16.35" height="3.68" rx="1.84" ry="1.84"/>
    <path class="cls-3" d="M36.92,41.09c-.68.06-1.33.32-1.88.74-.14.11-.47.43-.58.58-.2.25-.41.61-.52.89-.1.25-.17.52-.22.82l-.03.17v6.13c0,4.45,0,6.18,0,6.3.08,1.09.66,2.07,1.57,2.68.43.29.93.48,1.44.56.25.04.48.04,1.73.04h1.24s-.06-.04-.06-.04c-.57-.33-1.08-1.18-1.36-2.26-.16-.63-.24-1.14-.31-2.12-.01-.14-.02-1.88-.02-6.86v-6.68s.07.06.07.06c.04.04,1.74,1.72,3.78,3.74l3.71,3.68v2.3l-.2-.2c-.33-.33-4.4-4.37-5.15-5.11l-.7-.69v3.63c0,3.67,0,4.07.04,4.75.09,1.55.31,2.7.67,3.56.07.17.23.48.33.63.19.3.52.67.78.86.43.32.93.54,1.58.69l.21.05h3.16c3.47,0,3.2,0,3.58-.08,1.15-.23,2.14-1.07,2.58-2.18.1-.27.17-.52.22-.85.02-.13.02-.5.03-6.22,0-4.15,0-6.14,0-6.26-.02-.33-.07-.59-.17-.89-.45-1.35-1.65-2.3-3.07-2.42-.09,0-.67-.01-1.44-.01h-1.3l.07.04c.12.07.21.14.36.28.56.56.97,1.53,1.18,2.77.06.39.11.78.15,1.37,0,.15.01,1.95.02,6.85v6.64s-.04-.04-.04-.04c-.03-.02-1.29-1.27-2.81-2.78s-3.2-3.17-3.73-3.7l-.98-.97v-2.31l2.22,2.21c1.22,1.22,2.58,2.57,3.02,3.01l.8.8v-3.63c0-2.1,0-3.78-.01-4-.07-2.15-.33-3.59-.83-4.61-.18-.37-.37-.64-.63-.91-.27-.27-.53-.46-.88-.64-.32-.16-.64-.27-1.06-.36l-.18-.04h-3.12c-1.72,0-3.16,0-3.22.01Z"/>
    <g>
      <path class="cls-3" d="M40.66,67.08h-.89l-2.17-3.14h-.04v3.14h-1.02v-4.93h.9l2.15,3.14h.05v-3.14h1.02v4.93Z"/>
      <path class="cls-3" d="M41.49,62.14h3.25v.85h-2.23v1.2h2.02v.85h-2.02v2.04h-1.02v-4.93Z"/>
      <path class="cls-3" d="M47.63,62.98c-.77,0-1.27.59-1.27,1.63s.51,1.63,1.27,1.63c.57,0,.98-.31,1.08-.85h1.04c-.12.92-.88,1.75-2.13,1.75-1.32,0-2.3-.93-2.3-2.54s1-2.54,2.3-2.54c1.14,0,2,.65,2.13,1.79h-1.04c-.08-.55-.5-.88-1.08-.88Z"/>
    </g>
  </g>
</svg>